<svg id="pomme" xmlns="http://www.w3.org/2000/svg" width="30.836" height="37.766" viewBox="0 0 30.836 37.766">
  <path id="pomme-2" data-name="pomme" d="M729.894,2477.874a8.407,8.407,0,0,0,5.06,6.534s-2.167,5.819-4.562,7.85-3.115,2.569-5.188,1.986-3.387-1.667-5.509-1.354-3.879,1.623-5.641,1.578-4.244-1.622-6.68-5.818-3.7-9.6-3.115-13.842,3.827-7.788,6.906-8.565c4.469-1.13,6.184,1.351,8.53,1.351a7.252,7.252,0,0,0,2.437-.677,9.042,9.042,0,0,1,6.5-.856,9.49,9.49,0,0,1,5.188,3.517S728.854,2472.646,729.894,2477.874Zm-10.29-12.535s-.358-3.56,1.807-5.815a11.038,11.038,0,0,1,5.4-2.82s.781,3.631-1.523,5.975A10.184,10.184,0,0,1,719.6,2465.339Z" transform="translate(-704.117 -2456.704)" fill="#fff"/>
</svg>
