<svg id="instagram" xmlns="http://www.w3.org/2000/svg" width="22.275" height="22.275" viewBox="0 0 22.275 22.275">
  <path id="instagram-2" data-name="instagram" d="M1529.084,3867.386a4.976,4.976,0,0,1-4.971-4.972v-12.331a4.979,4.979,0,0,1,4.971-4.971h12.331a4.977,4.977,0,0,1,4.972,4.971v12.331a4.974,4.974,0,0,1-4.972,4.972Zm-1.051-11.137a7.217,7.217,0,1,0,7.217-7.212A7.227,7.227,0,0,0,1528.033,3856.249Zm13.057-7.426a1.528,1.528,0,1,0,1.529-1.529A1.527,1.527,0,0,0,1541.09,3848.823Zm-9.93,7.427a4.09,4.09,0,1,1,4.09,4.09A4.091,4.091,0,0,1,1531.16,3856.25Z" transform="translate(-1524.113 -3845.111)"/>
</svg>
