<svg id="instagram" xmlns="http://www.w3.org/2000/svg" width="66" height="66.001" viewBox="0 0 66 66.001">
  <path id="instagram-2" data-name="instagram" d="M1713,119a33,33,0,1,1,33-33A33,33,0,0,1,1713,119Zm11.387-37.916a4.977,4.977,0,0,0-4.972-4.972h-12.331a4.98,4.98,0,0,0-4.972,4.972V93.414a4.977,4.977,0,0,0,4.972,4.972h12.331a4.974,4.974,0,0,0,4.972-4.972Zm-3.769.262a1.526,1.526,0,1,1,1.528-1.523A1.527,1.527,0,0,1,1720.618,81.346Zm-7.369,13.12a7.215,7.215,0,1,1,7.217-7.217A7.227,7.227,0,0,1,1713.25,94.466Zm0-11.3a4.087,4.087,0,1,0,4.09,4.086A4.088,4.088,0,0,0,1713.25,83.164Z" transform="translate(-1680 -52.999)" fill="#fff"/>
</svg>
