<svg id="icone_linkedin" xmlns="http://www.w3.org/2000/svg" width="20.979" height="20.047" viewBox="0 0 20.979 20.047">
  <path id="icone_linkedin-2" data-name="icone_linkedin" d="M1606.6,3863.94V3856.7c0-1.817-.65-3.058-2.277-3.058a2.459,2.459,0,0,0-2.307,1.645,3.078,3.078,0,0,0-.149,1.1v7.554h-4.5s.06-12.257,0-13.526h4.5v1.917a4.466,4.466,0,0,1,4.053-2.234c2.959,0,5.178,1.933,5.178,6.088v7.756Zm-13.967-15.372h-.03a2.569,2.569,0,1,1,.03,0Zm2.248,15.372h-4.5v-13.526h4.5Z" transform="translate(-1590.116 -3843.894)"/>
</svg>
