<svg id="icone_linkedin" xmlns="http://www.w3.org/2000/svg" width="66" height="66" viewBox="0 0 66 66">
  <path id="icone_linkedin-2" data-name="icone_linkedin" d="M1796,119a32.9,32.9,0,1,1,12.845-2.593A32.795,32.795,0,0,1,1796,119Zm4.32-33.354c1.49,0,2.278,1.058,2.278,3.058v7.237h4.5V88.184c0-3.812-1.936-6.088-5.179-6.088a4.442,4.442,0,0,0-4.053,2.235V82.414h-4.5c.059,1.249,0,13.4,0,13.527h4.5V88.386a2.969,2.969,0,0,1,.149-1.1A2.5,2.5,0,0,1,1800.32,85.646Zm-13.937-3.232V95.941h4.5V82.414Zm2.277-6.521a2.344,2.344,0,1,0-.059,4.675h.03a2.345,2.345,0,1,0,.03-4.675Z" transform="translate(-1763 -53)" fill="#fff"/>
</svg>
