<svg id="phya-logo" xmlns="http://www.w3.org/2000/svg" width="157.481" height="65.36" viewBox="0 0 157.481 65.36">
  <path id="phya-logo-2" data-name="phya-logo" d="M1025.57,329.133h-7.011l.4-3.107a18.673,18.673,0,0,1-11.561,3.983,16.4,16.4,0,0,1-12.159-4.862,17.071,17.071,0,0,1-4.782-12.444,20.589,20.589,0,0,1,6.118-14.9A19.661,19.661,0,0,1,1011,291.582a16.154,16.154,0,0,1,8.01,1.946,14.111,14.111,0,0,1,3.8,3.148l.51-4.217h7.153Zm-6.924-27.9a10.2,10.2,0,0,0-7.622-2.923,12.855,12.855,0,0,0-9.645,4.133,13.948,13.948,0,0,0-4.019,10.195,10.456,10.456,0,0,0,2.9,7.774,10.181,10.181,0,0,0,7.622,2.927,13.545,13.545,0,0,0,6.913-1.812,12.906,12.906,0,0,0,4.912-5.191,15.58,15.58,0,0,0,1.84-7.462A10.276,10.276,0,0,0,1018.646,301.236Zm-56.518,40.338,28.015-49.114h2.013l-28.21,49.114Zm-4.365,3.114h-.184l32.43-56.858a1.633,1.633,0,0,1,1.35-.826l.385-.014-32.369,56.744A1.882,1.882,0,0,1,957.762,344.688Zm-1.72-3.114,6.687-11.619a16.2,16.2,0,0,0,1.251-13.388l-8.37-24.107h5.566a2.364,2.364,0,0,1,2.233,1.6l4.648,13.439a3.955,3.955,0,0,0,7.183.694l9.051-15.735h1.556l-28.015,49.114Zm-7.365-12.44h-6.894L944.047,312a56.954,56.954,0,0,0,.6-7.319,6.311,6.311,0,0,0-1.772-4.718A5.82,5.82,0,0,0,940.4,298.5a9.943,9.943,0,0,0-3.513-.532l-.372-.05c-8.21,0-8.888,5.253-9.48,9.754l-.359,2.734c-.161.884-.31,1.83-.447,2.849l-2.12,15.876h-6.9l6.658-49.805h4.966a1.7,1.7,0,0,1,1.669,1.935l-1.39,10.408h8.016c.029,0,.056,0,.085-.008,1.118-.07,12.085-.453,14.2,10.67a15.609,15.609,0,0,1,.16,2.177,62.54,62.54,0,0,1-.657,7.843Zm-54.445.876a16.084,16.084,0,0,1-8.012-1.966,14.707,14.707,0,0,1-3.884-3.241l-2.207,16.771h-7.138l5.164-38.643-.011.008,1.511-11.382h18.275l-.043.034a16.378,16.378,0,0,1,12.029,4.854,16.882,16.882,0,0,1,4.759,11.579,21.84,21.84,0,0,1-7.088,16.745A19.324,19.324,0,0,1,894.233,330.009ZM904.9,301.178a10.2,10.2,0,0,0-7.655-2.927,13.611,13.611,0,0,0-6.915,1.81,12.983,12.983,0,0,0-4.941,5.184,15.572,15.572,0,0,0-1.84,7.455A10.039,10.039,0,0,0,894.1,323.279a12.888,12.888,0,0,0,9.666-4.137,13.927,13.927,0,0,0,4.031-10.192A10.46,10.46,0,0,0,904.9,301.178Z" transform="translate(-872.992 -279.328)" fill="#fff"/>
</svg>
