<svg id="tiktok" xmlns="http://www.w3.org/2000/svg" width="22.661" height="25.764" viewBox="0 0 22.661 25.764">
  <path id="tiktok-2" data-name="tiktok" d="M1484.909,3848.172a6.5,6.5,0,0,1-6.523-6.451h-4.211v11.495l-.005,6.3a3.817,3.817,0,1,1-2.619-3.613v-4.271a8.316,8.316,0,0,0-1.214-.09,8.079,8.079,0,0,0-6.068,2.711,7.9,7.9,0,0,0,.357,10.9,8.171,8.171,0,0,0,.761.664,8.082,8.082,0,0,0,4.95,1.672,8.282,8.282,0,0,0,1.214-.089,8.053,8.053,0,0,0,4.5-2.246,7.87,7.87,0,0,0,2.365-5.6l-.022-9.4a10.674,10.674,0,0,0,6.53,2.217v-4.188s-.011,0-.012,0Z" transform="translate(-1462.26 -3841.72)"/>
</svg>
