<svg id="tiktok" xmlns="http://www.w3.org/2000/svg" width="66" height="66.001" viewBox="0 0 66 66.001">
  <path id="tiktok-2" data-name="tiktok" d="M1629,119a33,33,0,1,1,33-33A33,33,0,0,1,1629,119Zm12.921-38.7V79.171h-.012a6.5,6.5,0,0,1-6.523-6.451h-4.211V84.215l-.005,6.3a3.815,3.815,0,1,1-2.619-3.613V82.628a8.225,8.225,0,0,0-1.214-.09,8.077,8.077,0,0,0-6.068,2.711,7.9,7.9,0,0,0,.357,10.9,8.084,8.084,0,0,0,5.711,2.336,8.291,8.291,0,0,0,1.214-.089,8.055,8.055,0,0,0,4.5-2.247,7.869,7.869,0,0,0,2.365-5.6l-.022-9.4a10.671,10.671,0,0,0,6.53,2.217Z" transform="translate(-1596 -52.999)" fill="#fff"/>
</svg>
